<svg xmlns="http://www.w3.org/2000/svg" xmlns:xlink="http://www.w3.org/1999/xlink" xml:space="preserve" x="0" y="0" style="enable-background:new 0 0 163.2 163.2" version="1.1" viewBox="0 0 163.2 163.2"><style>.st0{fill:#751ddb}.st1{fill:#fff}</style><path d="M120.6 0c-6.6 23-20.4 43.7-39.3 58.8C60.4 75.5 35.2 84.3 8.4 84.3c-2.7 0-5.5 0-8.4-.3v79.2h163.2V0h-42.6z" class="st0"/><path d="M82.9 106.4v33.9h3.7v-25.9l25.2 26.3h.7v-33.6h-3.7v25.4l-24.9-26.1z" class="st1"/><defs><path id="SVGID_1_" d="M17.9 106.4h132.6v34.4H17.9z"/></defs><clipPath id="SVGID_00000147921101611464881870000005504040336890872200_"><use xlink:href="#SVGID_1_" style="overflow:visible"/></clipPath><path d="M125.8 140.3h6.1c5.2 0 9.2-.6 13.1-4.2 3.6-3.2 5.4-7.6 5.4-12.4 0-5-1.7-9.4-5.5-12.6-3.9-3.3-8-3.9-12.9-3.9h-6.2v33.1zm3.7-3.5v-26.3h2.7c3.9 0 7.2.5 10.3 3.2 2.8 2.5 4.3 6.1 4.3 10 0 3.7-1.4 7.2-4.1 9.7-3 2.8-6.4 3.4-10.4 3.4h-2.8z" style="clip-path:url(#SVGID_00000147921101611464881870000005504040336890872200_);fill-rule:evenodd;clip-rule:evenodd;fill:#fff"/><defs><path id="SVGID_00000178177064142128813160000000248844386567988906_" d="M17.9 106.4h132.6v34.4H17.9z"/></defs><clipPath id="SVGID_00000088092035989642809790000015081535074267306671_"><use xlink:href="#SVGID_00000178177064142128813160000000248844386567988906_" style="overflow:visible"/></clipPath><path d="M67.3 130.8H53.1l-4 9.4H45l15-33.8h.7l14.6 33.9h-4.1l-3.9-9.5zm-1.5-3.4H54.6l5.7-13.3 5.5 13.3z" style="clip-path:url(#SVGID_00000088092035989642809790000015081535074267306671_);fill-rule:evenodd;clip-rule:evenodd;fill:#fff"/><defs><path id="SVGID_00000078025310632811706510000016518842326403160251_" d="M17.9 106.4h132.6v34.4H17.9z"/></defs><clipPath id="SVGID_00000016072097990586341520000016791657760267925669_"><use xlink:href="#SVGID_00000078025310632811706510000016518842326403160251_" style="overflow:visible"/></clipPath><path d="M21.6 125.8v14.5h-3.8v-33.2h7.5c2.8 0 5.8.1 8.2 1.7 2.5 1.7 3.8 4.6 3.8 7.6 0 2.7-1.2 5.4-3.2 7.1-1.4 1.2-3.2 1.7-4.9 2l10.4 14.7h-4.5l-12.4-17.9H26c4.1 0 7.6-1.2 7.6-6 0-5.4-4.3-5.8-8.7-5.8h-3.5l.2 15.3z" style="clip-path:url(#SVGID_00000016072097990586341520000016791657760267925669_);fill:#fff"/><path d="M79 56c18-14.4 31.2-34.1 37.8-56H0v80.3c2.9.3 5.7.3 8.4.3 25.9.1 50.3-8.5 70.6-24.6z" class="st0"/><path d="M81.3 58.8C100.2 43.7 114 23 120.6 0h-3.9C110.2 21.9 96.9 41.6 79 56 58.7 72.1 34.3 80.7 8.4 80.7c-2.7 0-5.5-.1-8.4-.3V84c3 .3 5.7.3 8.4.3 26.8 0 52-8.8 72.9-25.5z" class="st1"/></svg>